<svg version="1.2" xmlns="http://www.w3.org/2000/svg" viewBox="0 0 800 800" width="800" height="800">
	<style>
		.s0 { fill: none;stroke: #ffffff;stroke-miterlimit:10;stroke-width: 50 } 
		.s1 { fill: #ffffff } 
	</style>
	<g id="Layer 1">
		<g id="Folder 1">
			<path id="Shape 1" fill-rule="evenodd" class="s0" d="m400 771.81c-201.85 0-365-166.2-365-371.81 0-205.61 163.15-371.81 365-371.81 201.85 0 365 166.2 365 371.81 0 205.61-163.15 371.81-365 371.81z"/>
			<path id="MP" fill-rule="evenodd" class="s1" d="m199.97 530h-52.08v-3.95l7.89-2.76q13.42-4.34 13.42-22.49v-202q0-7.89-1.98-12.62-1.58-4.73-9.07-7.89l-10.26-4.74v-3.94h76.15l72.98 190.95 68.65-190.95h77.72v3.94l-6.31 2.37q-7.49 2.76-10.26 7.89-2.76 4.74-2.76 12.63v206.34q0 7.89 1.98 12.23 1.97 4.34 9.46 7.49l7.89 3.55v3.95h-98.23v-3.95l8.28-3.55q7.5-3.15 9.47-7.49 1.97-4.34 1.97-12.23v-88.77l0.79-112.84-82.46 228.83h-19.72l-86.01-226.07 1.18 98.24v99.42q0 8.68 2.37 14.21 2.76 5.13 10.26 7.49l8.68 2.76zm368.02 0h-107.31v-3.94l7.89-2.76q7.89-2.37 10.26-7.1 2.76-4.74 2.76-12.63v-206.73q0-7.89-2.76-12.63-2.76-4.73-10.65-7.49l-7.5-3.16v-3.95h95.87q58.79 0 84.83 21.7 26.43 21.31 26.43 56.42 0 22.49-11.05 41.43-10.65 18.54-35.51 29.59-24.85 11.04-67.07 11.04h-13.41v72.6q0 15.38 15.39 20.12l11.83 3.55zm-27.22-252.5v144.4h14.99q19.33 0 31.56-6.31 12.23-6.32 18.15-22.1 5.92-15.78 5.92-43.79 0-28.41-6.71-44.19-6.31-15.78-18.93-21.7-12.63-6.31-31.57-6.31z"/>
		</g>
	</g>
</svg>