<svg width="261" height="131" viewBox="0 0 261 131" fill="none" xmlns="http://www.w3.org/2000/svg">
<path d="M123.984 88.4252C121.173 90.5502 118.184 92.7131 115.023 94.9202L111.161 89.3486L110.522 88.4252L110.178 87.9288C110.834 87.4734 111.48 87.0181 112.117 86.5659L111.477 88.4252H123.984Z" fill="#FAF9F4"/>
<path d="M102.499 88.4252L99.5738 96.9376H230.499L233.037 95.1194V88.4252H102.499ZM44.1933 -0.00012207L38.3334 17.031L35.405 25.5466H44.3824L47.3139 17.031L53.1738 -0.00012207H44.1933Z" fill="#FAF9F4"/>
<path d="M60.3263 88.4252C60.03 85.7185 59.863 83.0654 59.822 80.4757L88.3839 68.1846C89.5502 67.8525 90.625 67.0082 91.205 65.56C91.2555 65.4367 96.0153 52.3835 100.554 39.8109L96.5637 34.1033H71.4251L68.916 34.9286C68.1437 35.4978 52.8746 47.0838 51.4151 74.8282L23.2599 86.9422L44.3826 25.5466H35.4053L12.1075 93.2601L17.7941 98.563L51.4435 84.0805C51.6074 87.0118 51.9195 90.0853 52.4018 93.3139L56.6005 96.9376H99.5741L102.499 88.4252H60.3263ZM65.3572 53.2657C68.2036 47.5328 71.4314 44.0829 72.9918 42.6189H90.5116C86.5272 53.6546 84.7084 58.6571 83.9015 60.8484L60.2885 71.0083C61.0576 64.488 62.7535 58.5117 65.3572 53.2657Z" fill="#FAF9F4"/>
<path d="M261 17.0308V17.0466L258.075 25.5464H0V25.5306L2.92522 17.0308H261Z" fill="#FAF9F4"/>
<path d="M147.862 65.446C142.45 72.3489 134.122 80.0581 123.039 88.4251H110.531L111.171 86.5658C124.977 76.7853 135.014 67.9883 141.022 60.393C146.444 53.5407 147.38 49.2117 147.21 46.7895C147.052 44.5191 145.826 43.2258 145.038 42.6187H126.276L111.171 86.5658C110.534 87.0179 109.888 87.4733 109.232 87.9286L109.576 88.4251H101.554L120.224 34.1031H146.223L147.976 34.4858C150.551 35.6557 155.062 39.3712 155.651 45.8694C156.171 51.5991 153.552 58.1858 147.862 65.446Z" fill="#FAF9F4"/>
<path d="M111.171 86.5659L110.531 88.4252L110.216 89.3486L107.606 96.9376L95.8986 131H86.9212L98.6284 96.9376L101.554 88.4252H109.576L109.232 87.9288C109.888 87.4734 110.534 87.0181 111.171 86.5659Z" fill="#FAF9F4"/>
<path d="M183.148 21.2688L159.285 90.5542L167.308 93.335L191.171 24.0497L183.148 21.2688Z" fill="#FAF9F4"/>
<path d="M248.997 34.3056H213.869L209.853 37.1863L191.394 91.3027L195.41 96.9376H230.528L234.544 94.06L253.012 39.9437L248.997 34.3056ZM227.492 88.422H201.351L216.901 42.8212H243.061L227.492 88.422Z" fill="#FAF9F4"/>
</svg>
