<svg width="171" height="85" viewBox="0 0 171 85" fill="none" xmlns="http://www.w3.org/2000/svg">
<g clip-path="url(#clip0_33_336)">
<path d="M81.2312 57.3749C79.389 58.7537 77.4312 60.1571 75.3598 61.5892L72.8299 57.974L72.4107 57.3749L72.1855 57.0528C72.6151 56.7573 73.0385 56.4619 73.4557 56.1685L73.0364 57.3749H81.2312Z" fill="#451A12"/>
<path d="M67.1543 57.3747L65.2378 62.898H151.017L152.679 61.7183V57.3747H67.1543ZM28.954 -0.000488281L25.1148 11.0503L23.1962 16.5756H29.0779L30.9986 11.0503L34.8378 -0.000488281H28.954Z" fill="#451A12"/>
<path d="M39.5241 57.3745C39.33 55.6182 39.2206 53.8968 39.1937 52.2164L57.9067 44.2413C58.6708 44.0258 59.375 43.478 59.755 42.5383C59.7881 42.4583 62.9065 33.9887 65.8805 25.8309L63.2659 22.1275H46.7958L45.1519 22.663C44.6459 23.0323 34.642 30.5499 33.6858 48.552L15.2393 56.4123L29.0783 16.5754H23.1965L7.93251 60.5117L11.6582 63.9524L33.7044 54.5554C33.8118 56.4574 34.0162 58.4517 34.3322 60.5465L37.0831 62.8978H65.2382L67.1547 57.3745H39.5241ZM42.8202 34.5611C44.6851 30.8413 46.7999 28.6028 47.8222 27.6528H59.3007C56.6902 34.8135 55.4986 38.0593 54.9699 39.4812L39.4994 46.0735C40.0033 41.8428 41.1144 37.965 42.8202 34.5611Z" fill="#451A12"/>
<path d="M171 11.0493V11.0596L169.083 16.5747H0V16.5644L1.91652 11.0493H171Z" fill="#451A12"/>
<path d="M96.8751 42.4637C93.3291 46.9427 87.8728 51.9448 80.6115 57.3738H72.4167L72.8359 56.1673C81.8816 49.8213 88.4573 44.1133 92.3936 39.185C95.9457 34.7388 96.5591 31.93 96.4476 30.3583C96.3443 28.8852 95.5409 28.046 95.0246 27.6521H82.7325L72.8359 56.1673C72.4188 56.4607 71.9954 56.7562 71.5658 57.0516L71.7909 57.3738H66.535L78.7673 22.1267H95.8012L96.9494 22.375C98.6367 23.1341 101.592 25.5449 101.978 29.7613C102.319 33.4791 100.603 37.7529 96.8751 42.4637Z" fill="#451A12"/>
<path d="M72.8361 56.1685L72.4168 57.3749L72.2103 57.974L70.5003 62.8982L62.8301 84.9997H56.9483L64.6186 62.8982L66.5351 57.3749H71.7911L71.5659 57.0528C71.9955 56.7573 72.4189 56.4619 72.8361 56.1685Z" fill="#451A12"/>
<path d="M119.993 13.7992L104.359 58.7554L109.616 60.5597L125.25 15.6036L119.993 13.7992Z" fill="#451A12"/>
<path d="M163.136 22.2585H140.121L137.49 24.1277L125.396 59.2414L128.027 62.8976H151.036L153.667 61.0305L165.767 25.9168L163.136 22.2585ZM149.047 57.3722H131.92L142.108 27.7839H159.247L149.047 57.3722Z" fill="#451A12"/>
</g>
<defs>
<clipPath id="clip0_33_336">
<rect width="171" height="85" fill="white"/>
</clipPath>
</defs>
</svg>
